<?xml version="1.0" encoding="utf-8"?>
<!-- Generator: Adobe Illustrator 21.0.0, SVG Export Plug-In . SVG Version: 6.00 Build 0)  -->
<svg version="1.1" id="Layer_1" xmlns="http://www.w3.org/2000/svg" xmlns:xlink="http://www.w3.org/1999/xlink" x="0px" y="0px"
	 viewBox="0 0 48 24" style="enable-background:new 0 0 48 24;" xml:space="preserve">
<style type="text/css">
	.st0{fill:#FAFAFA;}
	.st1{opacity:8.000000e-02;clip-path:url(#SVGID_2_);fill:none;stroke:#000000;stroke-width:4.8;stroke-miterlimit:10;}
	.st2{fill:none;stroke:#FAFAFA;stroke-width:4.8;stroke-miterlimit:10;}
</style>
<path class="st0" d="M24,4.3c-4.9,0-8.9,4-8.9,8.9s4,8.9,8.9,8.9s8.9-4,8.9-8.9S28.9,4.3,24,4.3z M27.7,13.4
	c1.1,0.6,1.7,1.7,1.7,2.9c-1,0.6-2.3,0.6-3.4,0c-0.2-0.1-0.3-0.2-0.4-0.3c0,0.2,0,0.4,0,0.5c0,1.2-0.7,2.3-1.7,2.9
	c-1-0.6-1.7-1.7-1.7-2.9c0-0.2,0-0.4,0-0.5c-0.1,0.1-0.3,0.2-0.4,0.3c-1.1,0.6-2.4,0.6-3.4,0c0-1.2,0.6-2.3,1.7-2.9
	c0.2-0.1,0.3-0.2,0.5-0.2c-0.2-0.1-0.3-0.1-0.5-0.2c-1.1-0.6-1.7-1.7-1.7-2.9c1-0.6,2.3-0.6,3.4,0c0.2,0.1,0.3,0.2,0.4,0.3
	c0-0.2,0-0.4,0-0.5c0-1.2,0.7-2.3,1.7-2.9c1,0.6,1.7,1.7,1.7,2.9c0,0.2,0,0.4,0,0.5c0.1-0.1,0.3-0.2,0.4-0.3c1.1-0.6,2.4-0.6,3.4,0
	c0,1.2-0.6,2.3-1.7,2.9c-0.2,0.1-0.3,0.2-0.5,0.2C27.4,13.3,27.6,13.3,27.7,13.4z M24,11c1.2,0,2.2,1,2.2,2.2s-1,2.2-2.2,2.2
	s-2.2-1-2.2-2.2S22.8,11,24,11z"/>
<g>
	<defs>
		<path id="SVGID_1_" d="M24,4.3c-4.9,0-8.9,4-8.9,8.9s4,8.9,8.9,8.9s8.9-4,8.9-8.9S28.9,4.3,24,4.3z M27.7,13.4
			c1.1,0.6,1.7,1.7,1.7,2.9c-1,0.6-2.3,0.6-3.4,0c-0.2-0.1-0.3-0.2-0.4-0.3c0,0.2,0,0.4,0,0.5c0,1.2-0.7,2.3-1.7,2.9
			c-1-0.6-1.7-1.7-1.7-2.9c0-0.2,0-0.4,0-0.5c-0.1,0.1-0.3,0.2-0.4,0.3c-1.1,0.6-2.4,0.6-3.4,0c0-1.2,0.6-2.3,1.7-2.9
			c0.2-0.1,0.3-0.2,0.5-0.2c-0.2-0.1-0.3-0.1-0.5-0.2c-1.1-0.6-1.7-1.7-1.7-2.9c1-0.6,2.3-0.6,3.4,0c0.2,0.1,0.3,0.2,0.4,0.3
			c0-0.2,0-0.4,0-0.5c0-1.2,0.7-2.3,1.7-2.9c1,0.6,1.7,1.7,1.7,2.9c0,0.2,0,0.4,0,0.5c0.1-0.1,0.3-0.2,0.4-0.3
			c1.1-0.6,2.4-0.6,3.4,0c0,1.2-0.6,2.3-1.7,2.9c-0.2,0.1-0.3,0.2-0.5,0.2C27.4,13.3,27.6,13.3,27.7,13.4z M24,11
			c1.2,0,2.2,1,2.2,2.2s-1,2.2-2.2,2.2s-2.2-1-2.2-2.2S22.8,11,24,11z"/>
	</defs>
	<clipPath id="SVGID_2_">
		<use xlink:href="#SVGID_1_"  style="overflow:visible;"/>
	</clipPath>
	<path class="st1" d="M1.7,14.2c0,0,8.9-9,22.3-9s22.3,9,22.3,9"/>
</g>
<path class="st2" d="M1.7,13.2c0,0,8.9-9,22.3-9s22.3,9,22.3,9"/>
</svg>
