<?xml version="1.0" encoding="utf-8"?>
<!-- Generator: Adobe Illustrator 21.0.0, SVG Export Plug-In . SVG Version: 6.00 Build 0)  -->
<svg version="1.1" id="Layer_1" xmlns="http://www.w3.org/2000/svg" xmlns:xlink="http://www.w3.org/1999/xlink" x="0px" y="0px"
	 viewBox="0 0 1080 1080" style="enable-background:new 0 0 1080 1080;" xml:space="preserve">
<style type="text/css">
	.st0{display:none;}
	.st1{display:inline;}
	.st2{opacity:0.1;}
	.st3{opacity:0.4;}
	.st4{fill:none;stroke:#000000;stroke-width:0.1;stroke-miterlimit:10;}
	.st5{fill:none;stroke:#000000;stroke-width:0.2;stroke-miterlimit:10;}
	.st6{opacity:0.3;}
	.st7{opacity:0.12;}
	.st8{opacity:0.6;}
	.st9{fill:#00B28E;}
	.st10{clip-path:url(#SVGID_2_);}
	.st11{fill:#FFFFFF;}
	.st12{opacity:4.000000e-02;enable-background:new    ;}
	.st13{fill:url(#SVGID_3_);}
	.st14{fill:#00E676;}
	.st15{opacity:0.2;}
	.st16{fill:url(#SVGID_4_);}
</style>
<g id="Grid" class="st0">
	<g class="st1">
		<g id="Keylines" class="st2">
			<g>
				<g class="st3">
					<line class="st4" x1="0" y1="0" x2="1080" y2="1080"/>
				</g>
				<g class="st2">
					<line class="st4" x1="1080" y1="0" x2="0" y2="1080"/>
				</g>
			</g>
			<g>
				<g>
					<line class="st5" x1="0" y1="0" x2="1080" y2="1080"/>
				</g>
				<g>
					<line class="st5" x1="1080" y1="0" x2="0" y2="1080"/>
				</g>
			</g>
		</g>
		<g id="Circle" class="st6">
			<g>
				<path d="M540,283c141.7,0,257,115.3,257,257S681.7,797,540,797S283,681.7,283,540S398.3,283,540,283 M540,280
					c-143.6,0-260,116.4-260,260s116.4,260,260,260s260-116.4,260-260S683.6,280,540,280L540,280z"/>
			</g>
		</g>
		<g id="Inner_Circle" class="st6">
			<g>
				<path d="M540,363c97.6,0,177,79.4,177,177s-79.4,177-177,177s-177-79.4-177-177S442.4,363,540,363 M540,360
					c-99.4,0-180,80.6-180,180s80.6,180,180,180s180-80.6,180-180S639.4,360,540,360L540,360z"/>
			</g>
		</g>
		<g id="Horizontal_Rectangle" class="st7">
			<g>
				<path d="M780,361c10.5,0,19,8.5,19,19v320c0,10.5-8.5,19-19,19H300c-10.5,0-19-8.5-19-19V380c0-10.5,8.5-19,19-19H780 M780,360
					H300c-11,0-20,9-20,20v320c0,11,9,20,20,20h480c11,0,20-9,20-20V380C800,369,791,360,780,360L780,360z"/>
			</g>
		</g>
		<g id="Vertical_Rectangle" class="st7">
			<g>
				<path d="M700,281c10.5,0,19,8.5,19,19v480c0,10.5-8.5,19-19,19H380c-10.5,0-19-8.5-19-19V300c0-10.5,8.5-19,19-19H700 M700,280
					H380c-11,0-20,9-20,20v480c0,11,9,20,20,20h320c11,0,20-9,20-20V300C720,289,711,280,700,280L700,280z"/>
			</g>
		</g>
		<g id="Square" class="st7">
			<g>
				<path d="M740,321c10.5,0,19,8.5,19,19v400c0,10.5-8.5,19-19,19H340c-10.5,0-19-8.5-19-19V340c0-10.5,8.5-19,19-19H740 M740,320
					H340c-11,0-20,9-20,20v400c0,11,9,20,20,20h400c11,0,20-9,20-20V340C760,329,751,320,740,320L740,320z"/>
			</g>
		</g>
		<g id="Circular_Mask__x28_Pixel_x29_" class="st8">
			<g>
				<path class="st9" d="M540,186c195.2,0,354,158.8,354,354S735.2,894,540,894S186,735.2,186,540S344.8,186,540,186 M540,180
					c-198.8,0-360,161.2-360,360s161.2,360,360,360s360-161.2,360-360S738.8,180,540,180L540,180z"/>
			</g>
		</g>
	</g>
</g>
<g>
	<defs>
		<circle id="SVGID_1_" cx="540" cy="540" r="360"/>
	</defs>
	<clipPath id="SVGID_2_">
		<use xlink:href="#SVGID_1_"  style="overflow:visible;"/>
	</clipPath>
	<g id="Background_Layer" class="st10">
		<rect id="Background_9_" class="st11" width="1080" height="1080"/>
		<rect class="st12" width="1080" height="540"/>
	</g>
	<g id="Foreground_Layer" class="st10">
		
			<linearGradient id="SVGID_3_" gradientUnits="userSpaceOnUse" x1="414.7827" y1="691.7827" x2="1093.2827" y2="13.2827" gradientTransform="matrix(1 0 0 -1 0 1080)">
			<stop  offset="0" style="stop-color:#000000;stop-opacity:6.000000e-02"/>
			<stop  offset="1" style="stop-color:#000000;stop-opacity:0"/>
		</linearGradient>
		<path class="st13" d="M1080,749.9L752.3,422.2c-30.9-31.9-74.1-51.7-122-51.7c-72.8,0-134.8,46-158.8,110.5h-0.2l-55.7-59.6h-33.9
			V523H280v34l523,523h277V749.9z"/>
		<g>
			
				<image style="overflow:visible;opacity:2.000000e-02;enable-background:new    ;" width="562" height="381" xlink:href="FC9992EF.png"  transform="matrix(1 0 0 1 259 355)">
			</image>
			<g>
				
					<image style="overflow:visible;opacity:4.000000e-02;enable-background:new    ;" width="538" height="359" xlink:href="FC9992ED.png"  transform="matrix(1 0 0 1 271 366)">
				</image>
				<g>
					<g>
						<path class="st14" d="M543.8,573.9h1.9h171.4c-13.6,34.6-47.1,59.3-86.6,59.3C590.9,633.3,557.4,608.5,543.8,573.9z
							 M630.3,370.4c-82,0-150.3,58.3-166,135.7h34.8c15-58.5,68.1-101.7,131.4-101.7c74.9,0,135.7,60.7,135.7,135.7
							c0,74.9-60.7,135.7-135.7,135.7c-63.2,0-116.3-43.2-131.4-101.7h-34.8c15.7,77.4,84,135.7,166,135.7
							c93.8,0,169.7-76,169.7-169.6S724,370.4,630.3,370.4z M715.2,497.6c0-14.1-11.4-25.4-25.4-25.4s-25.4,11.4-25.4,25.4
							c0,14.1,11.4,25.4,25.4,25.4S715.2,511.7,715.2,497.6z M596.5,497.6c0-14.1-11.4-25.4-25.4-25.4s-25.4,11.4-25.4,25.4
							c0,14.1,11.4,25.4,25.4,25.4S596.5,511.7,596.5,497.6z M517.4,523H415.7V421.3h-33.9V523H280v34h101.7v101.7h33.9V557h101.7
							v-34H517.4z"/>
						<g class="st2">
							<path d="M689.8,523c14.1,0,25.4-11.4,25.4-25.4c0-0.3,0-0.7,0-1c-0.5,13.6-11.7,24.4-25.4,24.4s-24.9-10.8-25.4-24.4
								c0,0.3,0,0.7,0,1C664.3,511.7,675.7,523,689.8,523z"/>
							<path d="M571.1,523c14.1,0,25.4-11.4,25.4-25.4c0-0.3,0-0.7,0-1c-0.5,13.6-11.7,24.4-25.4,24.4s-24.9-10.8-25.4-24.4
								c0,0.3,0,0.7,0,1C545.7,511.7,557,523,571.1,523z"/>
							<path d="M630.4,633.3c39.5,0,73.1-24.8,86.6-59.3h-0.8c-14.1,33.5-47.1,57.3-85.8,57.3s-71.8-23.8-85.8-57.3h-0.8
								C557.4,608.5,590.9,633.3,630.4,633.3z"/>
							<path d="M630.4,404.3c74.6,0,135.1,60.2,135.6,134.7c0-0.3,0-0.7,0-1c0-74.9-60.7-135.7-135.7-135.7
								c-63.2,0-116.3,43.2-131.4,101.7h-34.4c-0.1,0.7-0.3,1.3-0.4,2h34.8C514.1,447.6,567.2,404.3,630.4,404.3z"/>
							<rect x="415.7" y="555" width="101.7" height="2"/>
							<rect x="280" y="555" width="101.7" height="2"/>
							<path d="M630.3,707.6c-81.3,0-149.1-57.3-165.6-133.7h-0.4c15.7,77.4,84,135.7,166,135.7c93.8,0,169.7-76,169.7-169.6
								c0-0.3,0-0.7,0-1C799.4,632.1,723.7,707.6,630.3,707.6z"/>
							<rect x="381.7" y="656.7" width="33.9" height="2"/>
						</g>
						<g class="st15">
							<path class="st11" d="M545.7,573.9h-1.9c0.3,0.7,0.5,1.3,0.8,2h1h170.6c0.3-0.7,0.6-1.3,0.8-2H545.7z"/>
							<path class="st11" d="M630.4,677.7c74.9,0,135.7-60.7,135.7-135.7c0-0.3,0-0.7,0-1c-0.5,74.5-61,134.7-135.6,134.7
								c-63.2,0-116.3-43.2-131.4-101.7h-34.8c0.1,0.7,0.3,1.3,0.4,2h34.4C514.1,634.4,567.2,677.7,630.4,677.7z"/>
							<path class="st11" d="M630.3,372.4c93.4,0,169.2,75.4,169.7,168.6c0-0.3,0-0.7,0-1c0-93.6-76-169.6-169.7-169.6
								c-82,0-150.3,58.3-166,135.7h0.4C481.2,429.7,549,372.4,630.3,372.4z"/>
							<path class="st11" d="M571.1,472.2c-14.1,0-25.4,11.4-25.4,25.4c0,0.3,0,0.7,0,1c0.5-13.6,11.7-24.4,25.4-24.4
								s24.9,10.8,25.4,24.4c0-0.3,0-0.7,0-1C596.5,483.5,585.2,472.2,571.1,472.2z"/>
							<rect x="381.7" y="421.3" class="st11" width="33.9" height="2"/>
							<rect x="280" y="523" class="st11" width="101.7" height="2"/>
							<rect x="415.7" y="523" class="st11" width="101.7" height="2"/>
							<path class="st11" d="M689.8,474.2c13.7,0,24.9,10.8,25.4,24.4c0-0.3,0-0.7,0-1c0-14.1-11.4-25.4-25.4-25.4
								s-25.4,11.4-25.4,25.4c0,0.3,0,0.7,0,1C664.9,485,676,474.2,689.8,474.2z"/>
						</g>
					</g>
				</g>
			</g>
		</g>
	</g>
	<g id="Finish" class="st10">
		
			<radialGradient id="SVGID_4_" cx="0" cy="1080" r="1120.0795" gradientTransform="matrix(1 0 0 -1 0 1080)" gradientUnits="userSpaceOnUse">
			<stop  offset="0.3624" style="stop-color:#FFFFFF;stop-opacity:0.1"/>
			<stop  offset="1" style="stop-color:#FFFFFF;stop-opacity:0"/>
		</radialGradient>
		<rect class="st16" width="1080" height="1080"/>
	</g>
</g>
</svg>
