<?xml version="1.0" encoding="utf-8"?>
<!-- Generator: Adobe Illustrator 21.0.0, SVG Export Plug-In . SVG Version: 6.00 Build 0)  -->
<svg version="1.1" id="Layer_1" xmlns="http://www.w3.org/2000/svg" xmlns:xlink="http://www.w3.org/1999/xlink" x="0px" y="0px"
	 viewBox="0 0 480 480" style="enable-background:new 0 0 480 480;" xml:space="preserve">
<style type="text/css">
	.st0{fill:#FFCCBC;}
	.st1{clip-path:url(#SVGID_2_);}
	.st2{fill:#424242;}
	.st3{fill:#FFFFFF;}
	.st4{fill:#757575;}
	.st5{fill:#69F0AE;}
	.st6{opacity:0.1;fill:#263238;}
	.st7{fill:#FFF9C4;}
	.st8{opacity:5.000000e-02;fill:#3E2723;enable-background:new    ;}
	.st9{fill:#3D3D3D;}
</style>
<title>onboarding-moods</title>
<circle class="st0" cx="240" cy="240" r="168"/>
<g>
	<defs>
		<path id="SVGID_1_" d="M408,240c0,55-26.9,106.5-72,137.9c-2.6,1.8-5.3,3.6-8,5.2c-54,33.2-122,33.2-176,0c-2.7-1.7-5.4-3.4-8-5.2
			c-76.1-53-94.9-157.7-41.9-233.9S259.9,49.1,336,102.2C381.1,133.6,408,185,408,240z"/>
	</defs>
	<clipPath id="SVGID_2_">
		<use xlink:href="#SVGID_1_"  style="overflow:visible;"/>
	</clipPath>
	<g class="st1">
		<path class="st2" d="M160,240h160c8.8,0,16,7.2,16,16v320c0,8.8-7.2,16-16,16H160c-8.8,0-16-7.2-16-16V256
			C144,247.2,151.2,240,160,240z"/>
		<path class="st3" d="M164,268h152c4.4,0,8,3.6,8,8v280c0,4.4-3.6,8-8,8H164c-4.4,0-8-3.6-8-8V276C156,271.6,159.6,268,164,268z"/>
		<path class="st4" d="M230,252h20c1.1,0,2,0.9,2,2l0,0c0,1.1-0.9,2-2,2h-20c-1.1,0-2-0.9-2-2l0,0C228,252.9,228.9,252,230,252z"/>
		<circle class="st4" cx="258" cy="254" r="2"/>
		<polygon class="st5" points="316,276 316,288 335.5,288 300,323.3 276,299.3 228,347.3 204,323.3 103.8,423.5 112.2,432 
			204,340.2 228,364.2 276,316.2 300,340.2 344,296.5 344,316 356,316 356,276 		"/>
		<path class="st6" d="M337.5,286l-2,2H316v-2H337.5z M110.2,430l-6.5-6.5l0,0l8.5,8.5l91.8-91.8l-2-2L110.2,430z M354,276v38h-10v2
			h12v-40H354z M226,362.2l2,2l48-48l-2-2L226,362.2z M344,292.5l-46,45.8l2,2l44-43.8V292.5z"/>
	</g>
</g>
<circle class="st7" cx="352" cy="168" r="44"/>
<path class="st8" d="M382.1,135.9c16.5,17.8,15.5,45.7-2.4,62.2c-16.9,15.6-42.9,15.6-59.8,0c16.5,17.8,44.4,18.9,62.2,2.4
	s18.9-44.4,2.4-62.2C383.7,137.5,382.9,136.7,382.1,135.9z"/>
<path class="st9" d="M338,158L338,158c2.2,0,4,1.8,4,4v10c0,2.2-1.8,4-4,4l0,0c-2.2,0-4-1.8-4-4v-10C334,159.8,335.8,158,338,158z"
	/>
<path class="st9" d="M346,188h12c1.1,0,2,0.9,2,2l0,0c0,1.1-0.9,2-2,2h-12c-1.1,0-2-0.9-2-2l0,0C344,188.9,344.9,188,346,188z"/>
<path class="st9" d="M326,156h16c1.1,0,2,0.9,2,2l0,0c0,1.1-0.9,2-2,2h-16c-1.1,0-2-0.9-2-2l0,0C324,156.9,324.9,156,326,156z"/>
<path class="st9" d="M374,158L374,158c2.2,0,4,1.8,4,4v10c0,2.2-1.8,4-4,4l0,0c-2.2,0-4-1.8-4-4v-10C370,159.8,371.8,158,374,158z"
	/>
<path class="st9" d="M362,156h16c1.1,0,2,0.9,2,2l0,0c0,1.1-0.9,2-2,2h-16c-1.1,0-2-0.9-2-2l0,0C360,156.9,360.9,156,362,156z"/>
<circle class="st7" cx="240" cy="168" r="56"/>
<path class="st8" d="M278.1,126.9c20.9,22.8,19.3,58.2-3.5,79.1c-21.4,19.6-54.2,19.6-75.7,0c20.9,22.8,56.3,24.4,79.1,3.5
	s24.4-56.3,3.5-79.1C280.4,129.2,279.3,128,278.1,126.9z"/>
<path class="st9" d="M258,190c0,9.9-8,18-17.9,18.1s-18-8-18.1-17.9l0,0c0-0.4,0-0.9,0-1.3c0.1-1.6,0.4-3.2,1-4.8h33.8
	c0.6,1.5,0.9,3.2,1,4.8C258,189.2,258,189.6,258,190z"/>
<path class="st3" d="M257.9,188.8c-0.1-1.6-0.4-3.2-1-4.8h-33.8c-0.6,1.5-0.9,3.2-1,4.8H257.9z"/>
<path class="st9" d="M216,148L216,148c2.2,0,4,1.8,4,4v16c0,2.2-1.8,4-4,4l0,0c-2.2,0-4-1.8-4-4v-16C212,149.8,213.8,148,216,148z"
	/>
<path class="st9" d="M264,148L264,148c2.2,0,4,1.8,4,4v16c0,2.2-1.8,4-4,4l0,0c-2.2,0-4-1.8-4-4v-16C260,149.8,261.8,148,264,148z"
	/>
<circle class="st7" cx="128" cy="168" r="44"/>
<path class="st8" d="M158.1,135.9c16.5,17.8,15.5,45.7-2.4,62.2c-16.9,15.6-42.9,15.6-59.8,0c16.5,17.8,44.4,18.9,62.2,2.4
	s18.9-44.4,2.4-62.2C159.7,137.5,158.9,136.7,158.1,135.9z"/>
<path class="st9" d="M144,158L144,158c2.2,0,4,1.8,4,4v12c0,2.2-1.8,4-4,4l0,0c-2.2,0-4-1.8-4-4v-12C140,159.8,141.8,158,144,158z"
	/>
<path class="st9" d="M112,158L112,158c2.2,0,4,1.8,4,4v12c0,2.2-1.8,4-4,4l0,0c-2.2,0-4-1.8-4-4v-12C108,159.8,109.8,158,112,158z"
	/>
<path class="st9" d="M116.2,194.2L116.2,194.2c-0.8-0.8-0.8-2.1,0-2.8c0.1-0.1,0.2-0.2,0.3-0.3c7.1-4.1,15.8-4.1,22.9,0
	c0.9,0.6,1.2,1.8,0.6,2.8c-0.1,0.1-0.2,0.2-0.3,0.3l0,0c-0.7,0.7-1.7,0.8-2.5,0.3c-5.8-3.3-12.9-3.3-18.6,0
	C117.9,195,116.8,194.9,116.2,194.2z"/>
<path class="st9" d="M151.5,156.5c-6.2,0-11.6-4-13.4-9.9c-0.3-1.1,0.3-2.2,1.3-2.5c1.1-0.3,2.2,0.3,2.5,1.3
	c1.6,5.3,7.2,8.3,12.5,6.7c1.1-0.3,2.2,0.3,2.5,1.3c0.3,1.1-0.3,2.2-1.3,2.5C154.2,156.3,152.9,156.5,151.5,156.5z"/>
<path class="st9" d="M104.5,156.5c-1.4,0-2.8-0.2-4.1-0.6c-1.1-0.3-1.7-1.4-1.3-2.5c0.3-1.1,1.4-1.7,2.5-1.3
	c5.3,1.6,10.9-1.4,12.5-6.7c0.3-1.1,1.4-1.7,2.5-1.3c1.1,0.3,1.7,1.4,1.3,2.5l0,0C116.1,152.5,110.7,156.5,104.5,156.5L104.5,156.5z
	"/>
</svg>
