<?xml version="1.0" encoding="UTF-8" standalone="no"?>
<svg
   xmlns:dc="http://purl.org/dc/elements/1.1/"
   xmlns:cc="http://creativecommons.org/ns#"
   xmlns:rdf="http://www.w3.org/1999/02/22-rdf-syntax-ns#"
   xmlns:svg="http://www.w3.org/2000/svg"
   xmlns="http://www.w3.org/2000/svg"
   xmlns:sodipodi="http://sodipodi.sourceforge.net/DTD/sodipodi-0.dtd"
   xmlns:inkscape="http://www.inkscape.org/namespaces/inkscape"
   id="Layer_1"
   data-name="Layer 1"
   viewBox="0 0 480 480"
   version="1.1"
   sodipodi:docname="illus-journals.svg"
   inkscape:version="0.92.3 (2405546, 2018-03-11)">
  <metadata
     id="metadata70">
    <rdf:RDF>
      <cc:Work
         rdf:about="">
        <dc:format>image/svg+xml</dc:format>
        <dc:type
           rdf:resource="http://purl.org/dc/dcmitype/StillImage" />
      </cc:Work>
    </rdf:RDF>
  </metadata>
  <sodipodi:namedview
     pagecolor="#ffffff"
     bordercolor="#666666"
     borderopacity="1"
     objecttolerance="10"
     gridtolerance="10"
     guidetolerance="10"
     inkscape:pageopacity="0"
     inkscape:pageshadow="2"
     inkscape:window-width="1366"
     inkscape:window-height="715"
     id="namedview68"
     showgrid="false"
     inkscape:zoom="1.1375"
     inkscape:cx="240"
     inkscape:cy="240"
     inkscape:window-x="-8"
     inkscape:window-y="22"
     inkscape:window-maximized="1"
     inkscape:current-layer="Layer_1" />
  <defs
     id="defs7">
    <style
       id="style2">.cls-1{fill:none;}.cls-2{fill:#b9f6ca;}.cls-3{fill:#90caf9;}.cls-4{fill:#263238;opacity:0.05;}.cls-5{fill:#fff;}.cls-6{clip-path:url(#clip-path);}.cls-7{fill:#424242;}.cls-8{fill:#757575;}.cls-9{fill:#bdbdbd;}.cls-10{fill:#e0e0e0;}</style>
    <clipPath
       id="clip-path">
      <circle
         class="cls-1"
         cx="240"
         cy="240"
         r="168"
         id="circle4" />
    </clipPath>
  </defs>
  <title
     id="title9">onboarding-journals</title>
  <circle
     class="cls-2"
     cx="240"
     cy="240"
     r="168"
     id="circle11" />
  <g
     id="journBubble">
    <circle
       id="circle13"
       r="72"
       cy="144"
       cx="336"
       class="cls-3"
       style="fill:#90caf9" />
    <path
       id="path15"
       d="M 385.37,91.62 A 72,72 0 0 1 283.62,193.38 72,72 0 1 0 385.37,91.62 Z"
       class="cls-4"
       inkscape:connector-curvature="0"
       style="opacity:0.05;fill:#263238" />
    <path
       id="path17"
       d="m 288,96 h 96 v 96 h -96 z"
       class="cls-1"
       inkscape:connector-curvature="0"
       style="fill:none" />
    <path
       id="path19"
       d="m 300,165 v 15 h 15 l 44.24,-44.24 -15,-15 z m 11.68,7 H 308 v -3.68 l 36.24,-36.24 3.68,3.68 z m 59.16,-53.48 -9.36,-9.36 a 4,4 0 0 0 -5.64,0 l -7.32,7.32 15,15 7.32,-7.32 a 4,4 0 0 0 0,-5.64 z"
       class="cls-5"
       inkscape:connector-curvature="0"
       style="fill:#ffffff" />
    <circle
       id="circle21"
       r="12"
       cy="228"
       cx="372"
       class="cls-3"
       style="fill:#90caf9" />
    <path
       id="path23"
       d="m 379.42,218.58 a 12,12 0 0 1 -16.84,16.84 12,12 0 1 0 16.84,-16.84 z"
       class="cls-4"
       inkscape:connector-curvature="0"
       style="opacity:0.05;fill:#263238" />
    <circle
       id="circle25"
       r="8"
       cy="256"
       cx="384"
       class="cls-3"
       style="fill:#90caf9" />
    <path
       id="path27"
       d="m 389.13,249.87 a 8,8 0 0 1 -11.27,11.27 8,8 0 1 0 11.27,-11.27 z"
       class="cls-4"
       inkscape:connector-curvature="0"
       style="opacity:0.05;fill:#263238" />
  </g>
  <g
     class="cls-6"
     clip-path="url(#clip-path)"
     id="journClip">
    <g
       id="journPhone">
      <rect
         style="fill:#424242"
         id="rect29"
         ry="16"
         rx="16"
         height="352"
         width="192"
         y="192"
         x="96"
         class="cls-7" />
      <rect
         style="fill:#ffffff"
         id="rect31"
         ry="8"
         rx="8"
         height="296"
         width="168"
         y="220"
         x="108"
         class="cls-5" />
      <rect
         style="fill:#757575"
         id="rect33"
         ry="2"
         rx="2"
         height="4"
         width="24"
         y="204"
         x="180"
         class="cls-8" />
      <circle
         style="fill:#757575"
         id="circle35"
         r="2"
         cy="206"
         cx="210"
         class="cls-8" />
      <g
         id="g904">
        <rect
           class="cls-9"
           x="168"
           y="240"
           width="48"
           height="8"
           id="rect37"
           style="fill:#bdbdbd" />
        <rect
           class="cls-10"
           x="120"
           y="264"
           width="136"
           height="4"
           id="rect39"
           style="fill:#e0e0e0" />
        <rect
           class="cls-10"
           x="120"
           y="276"
           width="128"
           height="4"
           id="rect41"
           style="fill:#e0e0e0" />
        <rect
           class="cls-10"
           x="120"
           y="288"
           width="140"
           height="4"
           id="rect43"
           style="fill:#e0e0e0" />
        <rect
           class="cls-10"
           x="120"
           y="300"
           width="132"
           height="4"
           id="rect45"
           style="fill:#e0e0e0" />
        <rect
           class="cls-10"
           x="120"
           y="312"
           width="144"
           height="4"
           id="rect47"
           style="fill:#e0e0e0" />
        <rect
           class="cls-10"
           x="120"
           y="324"
           width="124"
           height="4"
           id="rect49"
           style="fill:#e0e0e0" />
        <rect
           class="cls-10"
           x="120"
           y="336"
           width="136"
           height="4"
           id="rect51"
           style="fill:#e0e0e0" />
        <rect
           class="cls-10"
           x="120"
           y="360"
           width="128"
           height="4"
           id="rect53"
           style="fill:#e0e0e0" />
        <rect
           class="cls-10"
           x="120"
           y="372"
           width="136"
           height="4"
           id="rect55"
           style="fill:#e0e0e0" />
        <rect
           class="cls-10"
           x="120"
           y="384"
           width="132"
           height="4"
           id="rect57"
           style="fill:#e0e0e0" />
        <rect
           class="cls-10"
           x="120"
           y="396"
           width="144"
           height="4"
           id="rect59"
           style="fill:#e0e0e0" />
        <rect
           class="cls-10"
           x="120"
           y="408"
           width="104"
           height="4"
           id="rect61"
           style="fill:#e0e0e0" />
        <rect
           class="cls-10"
           x="120"
           y="348"
           width="140"
           height="4"
           id="rect63"
           style="fill:#e0e0e0" />
      </g>
    </g>
  </g>
</svg>
