<svg id="Layer_1" data-name="Layer 1" xmlns="http://www.w3.org/2000/svg" viewBox="0 0 3000 3000"><defs><style>.cls-1{fill:#212121;}.cls-2{fill:#00c853;}.cls-3{opacity:0.16;}</style></defs><title>logo-helianthus-white-green-black</title><path class="cls-1" d="M398.92,2282.92h-66v-420h66v180h75v-180h67.2v420h-67.2v-180h-75Z"/><path class="cls-1" d="M665.79,2039.92h90.6v60h-90.6v123h114v60h-180v-420h180v60h-114Z"/><path class="cls-1" d="M833.13,1862.92h66v360h108.6v60H833.13Z"/><path class="cls-1" d="M1055.6,1862.92h66v420h-66Z"/><path class="cls-1" d="M1314,2149.72l-31.8-212.4-31.8,212.4-8.4,57-11.4,76.2H1170l67.2-420h96.6l67.2,420h-66.6l-11.4-76.2Z"/><path class="cls-1" d="M1508.84,1978.72v304.2h-59.4v-420h82.8l67.8,251.4v-251.4h58.8v420H1591Z"/><path class="cls-1" d="M1706.47,1862.92h204v60h-69v360h-66v-360h-69Z"/><path class="cls-1" d="M2024.4,2282.92h-66v-420h66v180h75v-180h67.2v420h-67.2v-180h-75Z"/><path class="cls-1" d="M2289.59,1862.92v324c0,30,13.2,40.8,34.2,40.8s34.2-10.8,34.2-40.8v-324h62.4v319.8c0,67.2-33.6,105.6-98.4,105.6s-98.4-38.4-98.4-105.6v-319.8Z"/><path class="cls-1" d="M2570,1858.11c64.2,0,97.2,38.4,97.2,105.6v13.2h-62.4v-17.4c0-30-12-41.4-33-41.4s-33,11.4-33,41.4c0,86.4,129,102.6,129,222.6,0,67.2-33.6,105.6-98.4,105.6s-98.4-38.4-98.4-105.6v-25.8h62.4v30c0,30,13.2,40.8,34.2,40.8s34.2-10.8,34.2-40.8c0-86.4-129-102.6-129-222.6C2472.83,1896.51,2505.83,1858.11,2570,1858.11Z"/><path class="cls-2" d="M1500.38,669.7c-265.1,0-480,214.9-480,480s214.9,480,480,480,480-214.9,480-480S1765.47,669.7,1500.38,669.7ZM1701,1160.78c57.75,33.39,89.94,93.85,90.24,156.11-54.14,31-122.73,33.39-180.48,0a162.43,162.43,0,0,1-23.46-16.24,180.18,180.18,0,0,1,2.41,28.58c0,66.78-36.4,124.83-90.24,156.12-53.84-31.28-90.24-89.34-90.24-156.12a187,187,0,0,1,2.41-28.88,190.49,190.49,0,0,1-23.46,16.24,180.7,180.7,0,0,1-180.48,0c.3-62.27,32.49-122.73,90.24-156.12a182.27,182.27,0,0,1,25.87-12,182.3,182.3,0,0,1-25.87-12,179.58,179.58,0,0,1-90.24-156.12c54.14-31,122.73-33.39,180.48,0a164.15,164.15,0,0,1,23.46,16.54,180.18,180.18,0,0,1-2.41-28.58c0-66.78,36.4-124.83,90.24-156.12,53.84,31.28,90.24,89.34,90.24,156.12a180.18,180.18,0,0,1-2.41,28.58,190.47,190.47,0,0,1,23.46-16.24,180.7,180.7,0,0,1,180.48,0c-.3,62.27-32.49,122.73-90.24,156.12a182.3,182.3,0,0,1-25.87,12A182.24,182.24,0,0,1,1701,1160.78Z"/><path class="cls-2" d="M1499.42,1028.43a120.32,120.32,0,1,0,120.32,120.32A120.29,120.29,0,0,0,1499.42,1028.43Z"/><path class="cls-3" d="M1454.12,849.41a182.54,182.54,0,0,1,45.29-37.26,182.55,182.55,0,0,1,45.21,37.16,1559.21,1559.21,0,0,1,367.89,54.28c-83.83-140.09-237-233.89-412.14-233.89S1171.81,763.65,1088,903.93A1559,1559,0,0,1,1454.12,849.41Z"/><path class="cls-2" d="M2610.07,1238.42c-1.12-1.11-114.42-112.4-308.86-222.14C2124.78,916.7,1842.5,797.6,1499.67,795.7l-8.2,0C833.7,795.68,396,1233,391.64,1237.46L209.12,1058c5.36-5.45,133.83-134.95,355.94-262.7C695,720.5,831.25,661.08,970,618.62c174.33-53.35,353-79.9,531.1-78.91,177.71,1,356,28.7,530,82.38C2169.54,664.82,2305.55,724,2435.3,798c221.88,126.56,350.23,253.82,355.59,259.17l-181,181Z"/><path class="cls-1" d="M405,2433.4c0-8-8.8-11.4-28.8-11.4-31.6,0-45.2-8.4-45.2-28.6,0-20.4,16-31.4,46-31.4,27.6,0,46,12.8,46,32H403c0-8.4-10.4-14-26-14-17,0-26,4.6-26,13.4,0,7.6,8,10.6,27,10.6,33,0,47,9,47,29.4,0,21.2-16.8,32.6-48,32.6-28.8,0-48-12.8-48-32h20c0,8.4,11.2,14,28,14C395.24,2448,405,2442.8,405,2433.4Z"/><path class="cls-1" d="M745.6,2414c0,30-22,52-52,52s-52-22-52-52,22-52,52-52S745.6,2384,745.6,2414Zm-21,0c0-19-13-33-31-33s-31,14-31,33,13,33,31,33S724.6,2433,724.6,2414Z"/><path class="cls-1" d="M1043.68,2405v18h-56v41h-20V2364h96v18h-76v23Z"/><path class="cls-1" d="M1279.34,2364h100v18h-40v82h-20v-82h-40Z"/><path class="cls-1" d="M1622.29,2438h.2a129.07,129.07,0,0,1,7.4-24.2l13.2-29.8h20l13,29.8c5.4,12,7.6,24.2,7.8,24.2l8.6-74h19.6l-12,100h-21l-17.8-40.2c-6.2-13.8-8-21.8-8-21.8h-.4s-1.8,8-8,21.8l-17.8,40.2h-21l-12-100h19.6Z"/><path class="cls-1" d="M1919.69,2464l41-100h30l41,100h-21.6l-8.2-20h-52.8l-8.2,20Zm74.8-38-18-44h-2l-18,44Z"/><path class="cls-1" d="M2248.81,2364h72c18,0,30,12,30,30,0,16-10.4,27.2-26.2,28.8a33.24,33.24,0,0,1,3.6,4.8l22.6,36.4h-22.6l-25.4-41h-34v41h-20Zm72,41c6,0,10-4,10-10v-3c0-6-4-10-10-10h-52v23Z"/><path class="cls-1" d="M2593.71,2382v23h58v18h-58v23h78v18h-98V2364h98v18Z"/><path class="cls-2" d="M2680.25,840h60v10.8h-24V900h-12V850.8h-24Z"/><path class="cls-2" d="M2780.64,865.2h.84L2800.2,840H2811v60h-12V858h-.24a25.72,25.72,0,0,1-3.36,6.72L2787,876h-12l-8.4-11.28a25.74,25.74,0,0,1-3.36-6.72H2763v42h-12V840h10.8Z"/></svg>