<?xml version="1.0" encoding="UTF-8" standalone="no"?>
<!-- Generator: Adobe Illustrator 19.0.0, SVG Export Plug-In . SVG Version: 6.00 Build 0)  -->

<svg
   xmlns:dc="http://purl.org/dc/elements/1.1/"
   xmlns:cc="http://creativecommons.org/ns#"
   xmlns:rdf="http://www.w3.org/1999/02/22-rdf-syntax-ns#"
   xmlns:svg="http://www.w3.org/2000/svg"
   xmlns="http://www.w3.org/2000/svg"
   xmlns:xlink="http://www.w3.org/1999/xlink"
   xmlns:sodipodi="http://sodipodi.sourceforge.net/DTD/sodipodi-0.dtd"
   xmlns:inkscape="http://www.inkscape.org/namespaces/inkscape"
   version="1.1"
   id="Layer_1"
   x="0px"
   y="0px"
   viewBox="0 0 192 192"
   xml:space="preserve"
   sodipodi:docname="instagram-logo.svg"
   inkscape:version="0.92.2 (5c3e80d, 2017-08-06)"
   width="192"
   height="192"><metadata
     id="metadata5204"><rdf:RDF><cc:Work
         rdf:about=""><dc:format>image/svg+xml</dc:format><dc:type
           rdf:resource="http://purl.org/dc/dcmitype/StillImage" /></cc:Work></rdf:RDF></metadata><defs
     id="defs5202"><linearGradient
       inkscape:collect="always"
       id="linearGradient5764"><stop
         style="stop-color:#ffdc80;stop-opacity:1"
         offset="0"
         id="stop5760" /><stop
         id="stop3346"
         offset="0.11538908"
         style="stop-color:#ffdc80;stop-opacity:1" /><stop
         id="stop3344"
         offset="0.23070708"
         style="stop-color:#fcaf45;stop-opacity:1" /><stop
         id="stop3342"
         offset="0.34622553"
         style="stop-color:#f77737;stop-opacity:1" /><stop
         id="stop5768"
         offset="0.44313699"
         style="stop-color:#f56040;stop-opacity:1" /><stop
         style="stop-color:#fd1d1d;stop-opacity:1"
         offset="0.55444837"
         id="stop5770" /><stop
         id="stop3340"
         offset="0.65870243"
         style="stop-color:#e1306c;stop-opacity:1" /><stop
         id="stop3338"
         offset="0.79249346"
         style="stop-color:#c13584;stop-opacity:1" /><stop
         id="stop5772"
         offset="0.87226689"
         style="stop-color:#833ab4;stop-opacity:1" /><stop
         style="stop-color:#5851db;stop-opacity:1"
         offset="0.94976127"
         id="stop5774" /><stop
         style="stop-color:#405de6;stop-opacity:1"
         offset="1"
         id="stop5762" /></linearGradient><radialGradient
       inkscape:collect="always"
       xlink:href="#linearGradient5764"
       id="radialGradient853"
       cx="487.56339"
       cy="575.00122"
       fx="487.56339"
       fy="575.00122"
       r="335.9754"
       gradientTransform="matrix(0.53415447,-0.47685432,0.36179564,0.40527003,-421.53461,192.27483)"
       gradientUnits="userSpaceOnUse" /></defs><sodipodi:namedview
     pagecolor="#ffffff"
     bordercolor="#666666"
     borderopacity="1"
     objecttolerance="10"
     gridtolerance="10"
     guidetolerance="10"
     inkscape:pageopacity="0"
     inkscape:pageshadow="2"
     inkscape:window-width="1366"
     inkscape:window-height="715"
     id="namedview5200"
     showgrid="false"
     inkscape:zoom="0.75406309"
     inkscape:cx="-31.678009"
     inkscape:cy="45.993915"
     inkscape:window-x="-8"
     inkscape:window-y="-8"
     inkscape:window-maximized="1"
     inkscape:current-layer="Layer_1" /><path
     style="fill:url(#radialGradient853);fill-opacity:1;stroke-width:0.38104296"
     d="m 60.378995,191.65107 c -9.07809,-0.36141 -15.50362,-1.16338 -21.05835,-2.6283 C 20.695125,184.11076 7.5993845,170.86488 2.8844045,152.16883 0.5717245,142.99849 -0.0018555,131.87341 4.5041711e-6,96.222785 0.0020045,60.214115 0.5730145,49.060845 2.8844045,39.895615 7.6109945,21.153515 20.753435,7.8926947 39.425075,3.0258147 48.845765,0.57025466 59.507415,-0.00188534 95.810165,4.6613085e-6 132.4768,0.00200466 143.15973,0.57134466 152.57621,3.0258147 c 18.67166,4.86688 31.81408,18.1277003 36.54068,36.8698003 2.30888,9.1553 2.88311,20.33596 2.88311,56.13661 0,35.800645 -0.57423,46.981315 -2.88311,56.136605 -4.7266,18.7421 -17.86902,32.00292 -36.54068,36.8698 -5.93257,1.54637 -11.54358,2.20627 -22.47784,2.64359 -10.97881,0.4391 -58.439985,0.4179 -69.719375,-0.0311 z m 58.861445,-17.10633 c 18.61282,-0.3731 23.68885,-0.80054 29.4953,-2.48374 6.38247,-1.85017 10.10716,-3.95121 14.44628,-8.14888 5.85077,-5.66006 8.97386,-12.49793 10.35342,-22.66849 1.50959,-11.12911 1.50959,-79.293705 0,-90.422815 -0.98753,-7.28037 -3.10477,-13.38353 -6.21452,-17.91386 -1.79684,-2.61769 -5.96977,-6.75537 -8.5776,-8.50512 -4.23487,-2.84143 -10.57274,-4.98339 -17.54613,-5.92991 -11.12545,-1.51009 -79.267635,-1.51009 -90.393085,0 -6.97338,0.94652 -13.31127,3.08848 -17.54613,5.92991 -2.60782,1.74975 -6.78077,5.88743 -8.57762,8.50512 -3.10972,4.53033 -5.22697,10.63349 -6.2145,17.91386 -1.5096,11.12911 -1.5096,79.293705 0,90.422815 0.98753,7.28037 3.10478,13.38353 6.2145,17.91386 1.79685,2.61769 5.9698,6.75537 8.57762,8.50512 4.32851,2.90427 10.62053,4.99958 17.93477,5.97249 7.8335,1.04197 39.99706,1.47192 68.047695,0.90964 z M 87.208285,144.60345 c -20.24657,-3.66758 -36.24886,-19.78671 -39.78593,-40.0764 -0.7326,-4.20242 -0.7326,-12.787225 0,-16.989645 3.56244,-20.43523 19.65776,-36.53584 40.08627,-40.09945 4.20103,-0.73284 12.783015,-0.73284 16.984055,0 20.42851,3.56361 36.52384,19.66422 40.08626,40.09945 0.7326,4.20242 0.7326,12.787225 0,16.989645 -3.56242,20.43523 -19.65775,36.53584 -40.08626,40.09944 -4.05317,0.70705 -13.322225,0.69469 -17.284395,-0.0231 z m 16.221475,-17.50221 c 11.96504,-3.13582 20.47295,-11.65862 23.65848,-23.69989 0.95037,-3.592405 0.95037,-11.145835 0,-14.738255 -1.06367,-4.02068 -2.39913,-7.02217 -4.60607,-10.35228 -4.41117,-6.65617 -10.91088,-11.20462 -19.11482,-13.37641 -3.591225,-0.95069 -11.142175,-0.95069 -14.733405,0 -12.06766,3.19462 -20.52732,11.65706 -23.72089,23.72869 -0.95038,3.59242 -0.95038,11.14585 0,14.738255 2.99751,11.33057 10.85836,19.71042 21.75358,23.18986 4.72613,1.50931 12.09484,1.73351 16.763125,0.51003 z m 41.14587,-71.038285 c -3.33616,-0.88409 -6.06876,-3.11092 -7.71397,-6.2862 -1.3917,-2.68598 -1.45344,-7.19631 -0.13374,-9.76705 1.19994,-2.33748 3.27889,-4.44229 5.56183,-5.63098 2.60373,-1.35573 6.72497,-1.42004 9.56216,-0.14921 2.42004,1.08397 4.80086,3.47752 5.93901,5.97074 1.26969,2.78142 1.20154,6.91669 -0.15705,9.52764 -1.18305,2.27361 -3.30641,4.37851 -5.54969,5.50144 -1.78656,0.89431 -5.65769,1.3241 -7.50855,0.83362 z"
     id="path845"
     inkscape:connector-curvature="0" /></svg>