<?xml version="1.0" encoding="utf-8"?>
<!-- Generator: Adobe Illustrator 21.0.0, SVG Export Plug-In . SVG Version: 6.00 Build 0)  -->
<svg version="1.1" id="svg24" xmlns="http://www.w3.org/2000/svg" xmlns:xlink="http://www.w3.org/1999/xlink" x="0px" y="0px"
	 viewBox="0 0 600 1170" style="enable-background:new 0 0 600 1170;" xml:space="preserve">
<style type="text/css">
	.st0{fill:#424242;}
	.st1{fill:#00B8D4;}
	.st2{fill:#616161;}
	.st3{fill:#212121;}
	.st4{clip-path:url(#SVGID_2_);}
</style>
<title>mock-phone-border</title>
<path class="st0" d="M590,421c-1-1-2.5-1-5.2-1H576v210h8.8c2.7,0,4.2,0,5.2-1s1-2.5,1-5.2V426.1C591,423.4,591,422,590,421z"/>
<path class="st1" d="M590,271c-1-1-2.5-1-5.2-1H576v90h8.8c2.7,0,4.2,0,5.2-1s1-2.5,1-5.1v-77.7C591,273.4,591,272,590,271z"/>
<path id="Rectangle_623" class="st0" d="M272,19h54c1.7,0,3,1.3,3,3l0,0c0,1.7-1.3,3-3,3h-54c-1.7,0-3-1.3-3-3l0,0
	C269,20.3,270.3,19,272,19z"/>
<path class="st2" d="M571.5,27.4C556,12,535.7,12,504.9,12H93.1C62.3,12,42,12,26.5,27.4S11,63.2,11,94v982c0,30.8,0,51.1,15.5,66.6
	s35.8,15.4,66.6,15.4h411.8c30.8,0,51.2,0,66.6-15.4s15.5-35.8,15.5-66.6V94C587,63.2,587,42.9,571.5,27.4z M575,1076
	c0,31.2-0.5,46.6-12,58.1s-26.9,11.9-58,11.9H93.1c-31.2,0-46.7-0.5-58.2-11.9s-12-26.9-12-58.1V94c0-31.2,0.5-46.6,12-58.1
	S61.9,24,93,24h411.9c31.2,0,46.7,0.5,58.2,11.9s12,26.9,12,58.1V1076z"/>
<path class="st3" d="M570.1,28.9C555.2,14,535.2,14,504.9,14H93.1c-30.3,0-50.3,0-65.2,14.9S13,63.7,13,94v982
	c0,30.3,0,50.3,14.9,65.1s34.9,14.9,65.2,14.9h411.8c30.3,0,50.3,0,65.2-14.9s14.9-34.9,14.9-65.1V94C585,63.7,585,43.7,570.1,28.9z
	 M569,1076c0,29.5-0.4,44.1-10.2,53.8S534.5,1140,505,1140H93.1c-29.5,0-44.2-0.4-53.9-10.2S29,1105.5,29,1076V94
	c0-29.5,0.4-44.1,10.2-53.8S63.5,30,93,30h411.9c29.5,0,44.2,0.4,53.9,10.2S569,64.5,569,94V1076z"/>
<path class="st3" d="M570.1,28.9C555.2,14,535.2,14,504.9,14H93.1c-30.3,0-50.3,0-65.2,14.9S13,63.7,13,94v982
	c0,30.3,0,50.3,14.9,65.1s34.9,14.9,65.2,14.9h411.8c30.3,0,50.3,0,65.2-14.9s14.9-34.9,14.9-65.1V94C585,63.7,585,43.7,570.1,28.9z
	 M569,1076c0,29.5-0.4,44.1-10.2,53.8S534.5,1140,505,1140H93.1c-29.5,0-44.2-0.4-53.9-10.2S29,1105.5,29,1076V94
	c0-29.5,0.4-44.1,10.2-53.8S63.5,30,93,30h411.9c29.5,0,44.2,0.4,53.9,10.2S569,64.5,569,94V1076z"/>
<g>
	<defs>
		<circle id="SVGID_1_" cx="62.5" cy="63" r="12"/>
	</defs>
	<clipPath id="SVGID_2_">
		<use xlink:href="#SVGID_1_"  style="overflow:visible;"/>
	</clipPath>
	<g class="st4">
		
			<image style="overflow:visible;enable-background:new    ;" width="2160" height="2160" xlink:href="FB01E441.png"  transform="matrix(1.000000e-02 0 0 1.000000e-02 50.5 51)">
		</image>
	</g>
</g>
</svg>
