<svg xmlns="http://www.w3.org/2000/svg" data-name="Layer 1" viewBox="0 0 480 480">
<style>
  .a{
    fill:#fff;
  }
  .b{
    fill:#fff9c4;
  }
  .c{
    fill:#757575;
  }
  .d{
    fill:#3e2723;
    opacity:0.05;
  }
  .e{
    fill:#3d3d3d;
  }
</style>
  <defs>
    <style>
      .cls-1{fill:none;}.cls-2{fill:#ffccbc;}.cls-3{clip-path:url(#clip-path);}.cls-4{fill:#424242;}.cls-5{fill:#fff;}.cls-6{fill:#ffc107;}.cls-7{fill:#ffeb3b;}.cls-8{fill:#fff9c4;}.cls-9{fill:#ffd54f;}.cls-10{fill:#757575;}.cls-11{fill:#3e2723;opacity:0.05;}.cls-12{fill:#3d3d3d;}
    </style>
    <clipPath>
      <path class="cls-1" d="M408 240a167.8 167.8 0 0 1-72 137.9q-3.9 2.7-8 5.2a168.1 168.1 0 0 1-176 0q-4.1-2.5-8-5.2A168 168 0 1 1 408 240Z"/>
    </clipPath>
  </defs>
  <title>
    onboarding-moods
  </title>
  <circle class="cls-2" cx="240" cy="240" r="168"/>
  <g class="cls-3" clip-path="url(#clip-path)">
      <rect ry="16" rx="16" height="352" width="192" y="240" x="144" class="cls-4" fill="#424242"/>
      <rect ry="8" rx="8" height="296" width="168" y="268" x="156" class="cls-5" class="a"/>
      <path d="m287.2 339.6a3.6 3.6 0 0 1-0.7-0.6 29.6 29.6 0 0 0-3.5-3.4 16.7 16.7 0 0 0-2.4-1.6 8.4 8.4 0 0 0-2.4-0.8 13.2 13.2 0 0 0-4.4 0.1v0a13.2 13.2 0 0 0 4.1-1.6 8.4 8.4 0 0 0 1.9-1.7 16.6 16.6 0 0 0 1.6-2.4 29.3 29.3 0 0 0 1.9-4.4 3.6 3.6 0 0 1 0.5-0.8v0 0l0.5-0.6-0.8-0.1a3.7 3.7 0 0 1-0.9-0.3c-0.4-0.2-1.1-0.5-1.9-0.8a27.1 27.1 0 0 0-2.6-0.9 11.4 11.4 0 0 0-5.4-0.4 13.2 13.2 0 0 0-4 1.8v0a13.2 13.2 0 0 0 3.2-3 8.3 8.3 0 0 0 1.1-2.3 16 16 0 0 0 0.6-2.9 29.4 29.4 0 0 0 0.1-4.8 3.6 3.6 0 0 1 0.1-0.9v0 0l0.2-0.8-0.8 0.3a3.7 3.7 0 0 1-0.9 0.1c-0.5 0-1.2-0.1-2-0.1a27.4 27.4 0 0 0-2.8 0.1 17 17 0 0 0-2.9 0.6 8.3 8.3 0 0 0-2.3 1.1 13.2 13.2 0 0 0-3 3.2v0a13.2 13.2 0 0 0 1.8-4 8.3 8.3 0 0 0 0.1-2.5 16.9 16.9 0 0 0-0.5-2.9 27.3 27.3 0 0 0-0.9-2.6c-0.3-0.8-0.6-1.4-0.8-1.9a3.6 3.6 0 0 1-0.3-0.9v0 0l-0.1-0.8-0.7 0.6a3.6 3.6 0 0 1-0.8 0.4 29.7 29.7 0 0 0-4.4 1.9 16 16 0 0 0-2.5 1.4 8.3 8.3 0 0 0-1.7 1.9 13.2 13.2 0 0 0-1.6 4.1v0a13.2 13.2 0 0 0 0.1-4.4 11.4 11.4 0 0 0-2.5-4.8 27 27 0 0 0-1.9-2.1c-0.6-0.6-1.1-1.1-1.5-1.4a6.4 6.4 0 0 1-0.6-0.8L240 292l-0.4 0.8a3.6 3.6 0 0 1-0.6 0.7 29.6 29.6 0 0 0-3.4 3.5 16.7 16.7 0 0 0-1.6 2.4 8.4 8.4 0 0 0-0.8 2.4 13.2 13.2 0 0 0 0.1 4.4v0a13.2 13.2 0 0 0-1.6-4.1 8.4 8.4 0 0 0-1.7-1.9 16.6 16.6 0 0 0-2.4-1.6 29.3 29.3 0 0 0-4.4-1.9 3.6 3.6 0 0 1-0.8-0.4v0 0l-0.6-0.5-0.1 0.9a3.7 3.7 0 0 1-0.3 0.9c-0.2 0.4-0.5 1.1-0.8 1.9a27.1 27.1 0 0 0-0.9 2.6 11.4 11.4 0 0 0-0.4 5.4 13.2 13.2 0 0 0 1.8 4v0a13.2 13.2 0 0 0-3-3.2 8.3 8.3 0 0 0-2.3-1.1 16 16 0 0 0-2.9-0.6 29.4 29.4 0 0 0-4.8-0.1 3.6 3.6 0 0 1-0.9-0.1h0l-0.8-0.2 0.3 0.8a3.7 3.7 0 0 1 0.1 0.9c0 0.5-0.1 1.2-0.1 2a27.4 27.4 0 0 0 0.1 2.8 16.9 16.9 0 0 0 0.6 2.9 8.3 8.3 0 0 0 1.1 2.3 13.2 13.2 0 0 0 3.2 3v0a13.2 13.2 0 0 0-4-1.8 8.3 8.3 0 0 0-2.5-0.1 16.9 16.9 0 0 0-2.9 0.6 27.3 27.3 0 0 0-2.6 0.9c-0.8 0.3-1.4 0.7-1.9 0.9a3.6 3.6 0 0 1-0.9 0.3h0l-0.8 0.1 0.6 0.7a3.6 3.6 0 0 1 0.4 0.8 29.7 29.7 0 0 0 1.9 4.4 16 16 0 0 0 1.5 2.5 8.3 8.3 0 0 0 1.9 1.7 13.2 13.2 0 0 0 4.1 1.6v0a13.2 13.2 0 0 0-4.4-0.1 11.4 11.4 0 0 0-4.8 2.5 27 27 0 0 0-2.1 1.9c-0.6 0.6-1.1 1.2-1.4 1.5a3.2 3.2 0 0 1-0.7 0.6l-0.8 0.4 0.8 0.4a3.6 3.6 0 0 1 0.7 0.6 29.6 29.6 0 0 0 3.5 3.4 16.7 16.7 0 0 0 2.4 1.6 8.4 8.4 0 0 0 2.4 0.9 13.2 13.2 0 0 0 4.4-0.1v0a13.2 13.2 0 0 0-4.1 1.6 8.4 8.4 0 0 0-1.9 1.7 16.6 16.6 0 0 0-1.6 2.4 29.3 29.3 0 0 0-1.9 4.4 3.6 3.6 0 0 1-0.4 0.8v0 0l-0.5 0.6 0.9 0.1a3.7 3.7 0 0 1 0.9 0.3c0.4 0.2 1.1 0.5 1.9 0.9a27.1 27.1 0 0 0 2.6 0.9 11.4 11.4 0 0 0 5.4 0.4 13.2 13.2 0 0 0 4-1.8v0a13.2 13.2 0 0 0-3.2 3 8.3 8.3 0 0 0-1.1 2.3 16 16 0 0 0-0.6 2.9 29.4 29.4 0 0 0-0.1 4.8 3.6 3.6 0 0 1-0.1 0.9v0 0l-0.2 0.8 0.8-0.3a3.7 3.7 0 0 1 0.9-0.1c0.5 0 1.2 0.1 2 0.1a27.4 27.4 0 0 0 2.8-0.1 17 17 0 0 0 2.9-0.6 8.3 8.3 0 0 0 2.3-1.1 13.2 13.2 0 0 0 3-3.2v0a13.2 13.2 0 0 0-1.8 4 8.3 8.3 0 0 0-0.1 2.6 16.9 16.9 0 0 0 0.6 2.9 27.3 27.3 0 0 0 0.9 2.6c0.3 0.8 0.7 1.4 0.9 1.9a3.6 3.6 0 0 1 0.3 0.9v0 0l0.1 0.8 0.7-0.6a3.6 3.6 0 0 1 0.8-0.4 29.7 29.7 0 0 0 4.4-1.9 16 16 0 0 0 2.5-1.4 8.3 8.3 0 0 0 1.7-1.9 13.2 13.2 0 0 0 1.6-4.1v0a13.2 13.2 0 0 0-0.1 4.4 11.4 11.4 0 0 0 2.5 4.8 27 27 0 0 0 1.9 2.1c0.6 0.6 1.2 1.1 1.5 1.4a4 4 0 0 1 0.6 0.7l0.4 0.8 0.4-0.8a3.6 3.6 0 0 1 0.6-0.7 29.6 29.6 0 0 0 3.4-3.5 16.7 16.7 0 0 0 1.6-2.4 8.4 8.4 0 0 0 0.9-2.4 13.2 13.2 0 0 0-0.1-4.4v0a13.2 13.2 0 0 0 1.6 4.1 8.4 8.4 0 0 0 1.7 1.9 16.7 16.7 0 0 0 2.4 1.6 29.3 29.3 0 0 0 4.4 1.9 3.6 3.6 0 0 1 0.8 0.5v0 0l0.6 0.5 0.1-0.8a3.7 3.7 0 0 1 0.3-0.9c0.2-0.4 0.5-1.1 0.9-1.9a27.1 27.1 0 0 0 0.9-2.6 11.4 11.4 0 0 0 0.4-5.4 13.2 13.2 0 0 0-1.8-4v0a13.2 13.2 0 0 0 3 3.2 8.3 8.3 0 0 0 2.3 1.1 16 16 0 0 0 2.9 0.6 29.4 29.4 0 0 0 4.8 0.1 3.6 3.6 0 0 1 0.9 0.1h0.1l0.8 0.2-0.3-0.8a3.7 3.7 0 0 1-0.1-0.9c0-0.5 0.1-1.2 0.1-2a27.4 27.4 0 0 0-0.1-2.8 17 17 0 0 0-0.6-2.9 8.3 8.3 0 0 0-1.1-2.3 13.2 13.2 0 0 0-3.2-3v0a13.2 13.2 0 0 0 4 1.8 8.3 8.3 0 0 0 2.6 0.1 16.9 16.9 0 0 0 2.9-0.5 27.3 27.3 0 0 0 2.6-0.9c0.8-0.3 1.4-0.6 1.9-0.8a3.6 3.6 0 0 1 0.9-0.3h0.1l0.8-0.1-0.6-0.7a3.6 3.6 0 0 1-0.4-0.8 29.7 29.7 0 0 0-1.9-4.4 16 16 0 0 0-1.5-2.5 8.3 8.3 0 0 0-1.9-1.7 13.2 13.2 0 0 0-4.1-1.6v0a13.2 13.2 0 0 0 4.4 0.1 11.4 11.4 0 0 0 4.8-2.5 27 27 0 0 0 2.1-1.9c0.6-0.6 1.1-1.1 1.4-1.5a6.4 6.4 0 0 1 0.8-0.6L288 340Z" class="cls-6" fill="#ffc107"/>
      <path d="m284.1 347.8a28.6 28.6 0 0 0-2.6-3.8 15.4 15.4 0 0 0-2-2 8 8 0 0 0-2.1-1.3 12.7 12.7 0 0 0-4.2-0.7v0a12.7 12.7 0 0 0 4.2-0.7 11 11 0 0 0 4.1-3.2 26 26 0 0 0 1.6-2.2c0.4-0.7 0.8-1.3 1-1.7a3.5 3.5 0 0 1 0.6-0.7v0 0l0.6-0.5-0.8-0.2a3.5 3.5 0 0 1-0.8-0.4 28.5 28.5 0 0 0-3.9-2.5 16.1 16.1 0 0 0-2.6-1.1 8.1 8.1 0 0 0-2.4-0.3 12.7 12.7 0 0 0-4.1 0.9v0a12.8 12.8 0 0 0 3.6-2.2 8.1 8.1 0 0 0 1.5-2 16 16 0 0 0 1.1-2.6 28.2 28.2 0 0 0 1-4.6 3.5 3.5 0 0 1 0.3-0.9v0 0l0.4-0.7-0.8 0.1a3.6 3.6 0 0 1-0.9-0.1c-0.5-0.1-1.1-0.3-1.9-0.4a26.1 26.1 0 0 0-2.7-0.4 11 11 0 0 0-5.2 0.6 12.7 12.7 0 0 0-3.4 2.4v0a12.7 12.7 0 0 0 2.4-3.4 8 8 0 0 0 0.6-2.4 15.4 15.4 0 0 0 0-2.8 28.3 28.3 0 0 0-0.8-4.6 3.5 3.5 0 0 1-0.1-0.9v0 0l0.1-0.8-0.7 0.4a3.5 3.5 0 0 1-0.9 0.3c-0.5 0.1-1.1 0.2-1.9 0.3a26.4 26.4 0 0 0-2.6 0.7 16.3 16.3 0 0 0-2.6 1.1 8 8 0 0 0-2 1.5 12.7 12.7 0 0 0-2.3 3.6v0a12.7 12.7 0 0 0 0.9-4.1 8 8 0 0 0-0.4-2.4 16.3 16.3 0 0 0-1.1-2.6 26.3 26.3 0 0 0-1.4-2.3c-0.5-0.7-0.9-1.2-1.1-1.6a3.5 3.5 0 0 1-0.4-0.8v0 0l-0.2-0.7-0.5 0.7a3.5 3.5 0 0 1-0.7 0.6 28.6 28.6 0 0 0-3.8 2.6 15.4 15.4 0 0 0-2 2 8 8 0 0 0-1.3 2.1 12.7 12.7 0 0 0-0.7 4.2v0a12.7 12.7 0 0 0-0.7-4.2 11 11 0 0 0-3.2-4.1 26 26 0 0 0-2.2-1.6c-0.7-0.4-1.3-0.8-1.7-1a3.5 3.5 0 0 1-0.7-0.6v0 0l-0.5-0.6-0.2 0.8a3.5 3.5 0 0 1-0.4 0.8 28.5 28.5 0 0 0-2.5 3.9 16.1 16.1 0 0 0-1.1 2.6 8.1 8.1 0 0 0-0.3 2.4 12.7 12.7 0 0 0 0.9 4.1v0a12.8 12.8 0 0 0-2.2-3.6 8.1 8.1 0 0 0-2-1.5 16 16 0 0 0-2.6-1.1 28.2 28.2 0 0 0-4.6-1 3.5 3.5 0 0 1-0.9-0.3v0 0l-0.7-0.4 0.1 0.8a3.6 3.6 0 0 1-0.1 0.9c-0.1 0.5-0.3 1.1-0.4 1.9a26.1 26.1 0 0 0-0.4 2.7 11 11 0 0 0 0.6 5.2 12.7 12.7 0 0 0 2.4 3.5v0a12.7 12.7 0 0 0-3.4-2.4 8 8 0 0 0-2.4-0.6 15.4 15.4 0 0 0-2.8 0 28.3 28.3 0 0 0-4.6 0.9 3.5 3.5 0 0 1-0.9 0.1h0l-0.8-0.1 0.4 0.7a3.5 3.5 0 0 1 0.3 0.9c0.1 0.5 0.2 1.2 0.3 1.9a26.4 26.4 0 0 0 0.7 2.6 16.3 16.3 0 0 0 1.1 2.6 8 8 0 0 0 1.5 2 12.7 12.7 0 0 0 3.6 2.3v0a12.7 12.7 0 0 0-4.1-0.9 8 8 0 0 0-2.4 0.4 16.3 16.3 0 0 0-2.6 1.1 26.3 26.3 0 0 0-2.3 1.4c-0.7 0.5-1.2 0.9-1.6 1.2a3.5 3.5 0 0 1-0.8 0.4h0l-0.7 0.2 0.7 0.5a3.5 3.5 0 0 1 0.6 0.7 28.6 28.6 0 0 0 2.6 3.8 15.4 15.4 0 0 0 2 2 8 8 0 0 0 2.1 1.3 12.7 12.7 0 0 0 4.2 0.7v0a12.7 12.7 0 0 0-4.2 0.7 11 11 0 0 0-4.1 3.2 26 26 0 0 0-1.6 2.2c-0.4 0.7-0.8 1.3-1 1.7a3.5 3.5 0 0 1-0.6 0.7v0 0l-0.6 0.5 0.8 0.2a3.5 3.5 0 0 1 0.8 0.4 28.5 28.5 0 0 0 3.9 2.5 16.1 16.1 0 0 0 2.6 1.1 8.1 8.1 0 0 0 2.4 0.4 12.7 12.7 0 0 0 4.1-0.9v0a12.8 12.8 0 0 0-3.6 2.3 8.1 8.1 0 0 0-1.5 2 16 16 0 0 0-1.1 2.6 28.2 28.2 0 0 0-1 4.6 3.5 3.5 0 0 1-0.3 0.9v0 0l-0.4 0.7 0.8-0.1a3.6 3.6 0 0 1 0.9 0.1c0.5 0.1 1.1 0.3 1.9 0.5a26.1 26.1 0 0 0 2.7 0.4 11 11 0 0 0 5.2-0.6 12.7 12.7 0 0 0 3.5-2.4v0a12.7 12.7 0 0 0-2.4 3.5 8 8 0 0 0-0.6 2.4 15.4 15.4 0 0 0 0 2.8 28.3 28.3 0 0 0 0.9 4.6 3.5 3.5 0 0 1 0.1 0.9v0 0l-0.1 0.8 0.7-0.4a3.5 3.5 0 0 1 0.9-0.3c0.5-0.1 1.2-0.2 1.9-0.3a26.4 26.4 0 0 0 2.6-0.7 16.3 16.3 0 0 0 2.6-1.1 8 8 0 0 0 2-1.5 12.7 12.7 0 0 0 2.3-3.6v0a12.7 12.7 0 0 0-0.9 4.1 8 8 0 0 0 0.4 2.4 16.3 16.3 0 0 0 1.1 2.6 26.3 26.3 0 0 0 1.4 2.3c0.5 0.7 0.9 1.2 1.2 1.6a3.5 3.5 0 0 1 0.4 0.8v0 0l0.2 0.7 0.5-0.6a3.5 3.5 0 0 1 0.7-0.6 28.6 28.6 0 0 0 3.8-2.6 15.4 15.4 0 0 0 2-2 8 8 0 0 0 1.3-2.1 12.7 12.7 0 0 0 0.7-4.2v0a12.7 12.7 0 0 0 0.7 4.2 11 11 0 0 0 3.2 4.1 26 26 0 0 0 2.2 1.6c0.7 0.4 1.3 0.8 1.7 1a3.5 3.5 0 0 1 0.7 0.6v0 0l0.5 0.6 0.2-0.8a3.5 3.5 0 0 1 0.4-0.8 28.5 28.5 0 0 0 2.5-3.9 16.1 16.1 0 0 0 1.1-2.6 8.1 8.1 0 0 0 0.4-2.4 12.7 12.7 0 0 0-0.9-4.1v0a12.8 12.8 0 0 0 2.3 3.6 8.1 8.1 0 0 0 2 1.5 16 16 0 0 0 2.6 1.1 28.2 28.2 0 0 0 4.6 1 3.5 3.5 0 0 1 0.9 0.3v0 0l0.7 0.4-0.1-0.8a3.6 3.6 0 0 1 0.1-0.9c0.1-0.5 0.3-1.1 0.5-1.9a26.1 26.1 0 0 0 0.4-2.7 11 11 0 0 0-0.6-5.2 12.7 12.7 0 0 0-2.4-3.4v0a12.7 12.7 0 0 0 3.5 2.4 8 8 0 0 0 2.4 0.6 15.4 15.4 0 0 0 2.8 0 28.3 28.3 0 0 0 4.6-0.8 3.5 3.5 0 0 1 0.9-0.1h0.1l0.8 0.1-0.4-0.7a3.5 3.5 0 0 1-0.3-0.9c-0.1-0.5-0.2-1.1-0.3-1.9a26.4 26.4 0 0 0-0.7-2.6 16.3 16.3 0 0 0-1.1-2.6 8 8 0 0 0-1.5-2 12.7 12.7 0 0 0-3.6-2.3v0a12.7 12.7 0 0 0 4.1 0.9 8 8 0 0 0 2.4-0.4 16.3 16.3 0 0 0 2.6-1.1 26.3 26.3 0 0 0 2.3-1.4c0.7-0.5 1.2-0.9 1.6-1.1a3.5 3.5 0 0 1 0.8-0.4h0.1l0.7-0.2-0.6-0.5a3.5 3.5 0 0 1-0.6-0.7z" class="cls-7" fill="#ffeb3b"/>
      <path d="m212 340a28 28 0 1 1 28 28 28 28 0 0 1-28-28z" class="cls-8" class="b"/>
      <polygon points="242 338 242 328 238 328 238 338 228 338 228 342 238 342 238 352 242 352 242 342 252 342 252 338 " class="cls-9" fill="#ffd54f"/>
      <circle class="cls-10" cx="258" cy="254" r="2" class="c"/>
      <rect ry="2" rx="2" height="4" width="24" y="252" x="228" class="cls-10" class="c"/>
  </g>
    <circle r="44" cy="168" cx="352" class="cls-8" class="b"/>
    <path d="m382.1 135.9a44 44 0 0 1-62.2 62.2 44 44 0 1 0 62.2-62.2z" class="cls-11" class="d"/>
    <rect ry="4" rx="4" height="18" width="8" y="158" x="334" class="cls-12" class="e"/>
    <rect ry="2" rx="2" height="4" width="16" y="188" x="344" class="cls-12" class="e"/>
    <rect ry="2" rx="2" height="4" width="20" y="156" x="324" class="cls-12" class="e"/>
    <rect ry="4" rx="4" height="18" width="8" y="158" x="370" class="cls-12" class="e"/>
    <rect ry="2" rx="2" height="4" width="20" y="156" x="360" class="cls-12" class="e"/>
    <circle r="56" cy="168" cx="240" class="cls-8" class="b"/>
    <path d="m278.1 126.9a56 56 0 0 1-79.1 79.1 56 56 0 1 0 79.1-79.1z" class="cls-11" class="d"/>
    <path d="m258 190a18 18 0 0 1-36 0.1c0-0.4 0-0.9 0-1.3a17.2 17.2 0 0 1 1-4.8h33.8a17.2 17.2 0 0 1 1 4.8C258 189.2 258 189.6 258 190Z" class="cls-12" class="e"/>
    <path d="m257.9 188.8a17.2 17.2 0 0 0-1-4.8h-33.8a17.2 17.2 0 0 0-1 4.8z" class="cls-5" class="a"/>
    <rect ry="4" rx="4" height="24" width="8" y="148" x="212" class="cls-12" class="e"/>
    <rect ry="4" rx="4" height="24" width="8" y="148" x="260" class="cls-12" class="e"/>
    <circle r="44" cy="168" cx="128" class="cls-8" class="b"/>
    <path d="m158.1 135.9a44 44 0 0 1-62.2 62.2 44 44 0 1 0 62.2-62.2z" class="cls-11" class="d"/>
    <rect ry="4" rx="4" height="20" width="8" y="158" x="140" class="cls-12" class="e"/>
    <rect ry="4" rx="4" height="20" width="8" y="158" x="108" class="cls-12" class="e"/>
    <path d="m116.2 194.2v0a2 2 0 0 1 0.4-3.1 22.8 22.8 0 0 1 22.9 0 2 2 0 0 1 0.3 3.1v0a2 2 0 0 1-2.5 0.3 18.9 18.9 0 0 0-18.6 0 2 2 0 0 1-2.5-0.3z" class="cls-12" class="e"/>
    <path d="m151.5 156.5a14 14 0 0 1-13.4-9.9 2 2 0 1 1 3.8-1.2 10 10 0 0 0 12.5 6.7 2 2 0 0 1 1.2 3.8 14.1 14.1 0 0 1-4.1 0.6z" class="cls-12" class="e"/>
    <path d="m104.5 156.5a14.1 14.1 0 0 1-4.1-0.6 2 2 0 0 1 1.2-3.8 10 10 0 0 0 12.5-6.7 2 2 0 1 1 3.8 1.2 14 14 0 0 1-13.4 9.9z" class="cls-12" class="e"/>
</svg>
